<svg width="400" height="400" viewBox="0 0 400 400" fill="none" xmlns="http://www.w3.org/2000/svg">
  <!-- Background Circle -->
  <circle cx="200" cy="200" r="180" fill="url(#paint0_radial)" fill-opacity="0.6" />
  
  <!-- Hand Outline -->
  <path d="M160 120C160 120 180 140 200 140C220 140 240 120 240 120" stroke="#6366F1" stroke-width="8" stroke-linecap="round" />
  <path d="M140 150C140 150 170 180 200 180C230 180 260 150 260 150" stroke="#6366F1" stroke-width="8" stroke-linecap="round" />
  <path d="M130 190C130 190 170 220 200 220C230 220 270 190 270 190" stroke="#6366F1" stroke-width="8" stroke-linecap="round" />
  <path d="M130 230C130 230 170 260 200 260C230 260 270 230 270 230" stroke="#6366F1" stroke-width="8" stroke-linecap="round" />
  
  <!-- Fingers -->
  <path d="M150 280C150 280 170 300 200 300C230 300 250 280 250 280" stroke="#6366F1" stroke-width="8" stroke-linecap="round" />
  
  <!-- Wrist -->
  <path d="M170 320C170 320 185 330 200 330C215 330 230 320 230 320" stroke="#6366F1" stroke-width="8" stroke-linecap="round" />
  
  <!-- Decorative Elements -->
  <circle cx="200" cy="140" r="5" fill="#EC4899" />
  <circle cx="200" cy="180" r="5" fill="#EC4899" />
  <circle cx="200" cy="220" r="5" fill="#EC4899" />
  <circle cx="200" cy="260" r="5" fill="#EC4899" />
  <circle cx="200" cy="300" r="5" fill="#EC4899" />
  
  <!-- Gradient Definition -->
  <defs>
    <radialGradient id="paint0_radial" cx="0" cy="0" r="1" gradientUnits="userSpaceOnUse" gradientTransform="translate(200 200) rotate(90) scale(180)">
      <stop stop-color="#C4B5FD" />
      <stop offset="1" stop-color="#C4B5FD" stop-opacity="0" />
    </radialGradient>
  </defs>
</svg>